# xmcd
#
# Track frame offsets:
#	150
#	14306
#	28958
#	44721
#
# Disc length: 842 seconds
#
# Revision: 0
# Processed by: cddbd v1.5.2PL0 Copyright (c) Steve Scherf et al.
# Submitted via: audiograbber 1.83.01
#
DISCID=31034804
DTITLE=Frank Riley - Solarus
DYEAR=1900
DGENRE=
TTITLE0=You are the sunshine of my life
TTITLE1=Sunny
TTITLE2=Walking on sunshine
TTITLE3=solarus
EXTD=
EXTT0=
EXTT1=
EXTT2=
EXTT3=
PLAYORDER=
